{
  "accessors": [
    {
      "bufferView": 2,
      "componentType": 5126,
      "count": 51747,
      "max": [
        0.8717523813247681,
        4.873400688171387,
        3.470245838165283
      ],
      "min": [
        -0.8521514534950256,
        -0.0018898667767643929,
        -0.7965870499610901
      ],
      "type": "VEC3"
    },
    {
      "bufferView": 2,
      "byteOffset": 620964,
      "componentType": 5126,
      "count": 51747,
      "max": [
        0.9999967217445374,
        0.9998725652694702,
        0.9999969601631165
      ],
      "min": [
        -0.9999876618385315,
        -0.9999951124191284,
        -0.9999777674674988
      ],
      "type": "VEC3"
    },
    {
      "bufferView": 1,
      "componentType": 5126,
      "count": 51747,
      "max": [
        0.9917849898338318,
        1.9923949241638184
      ],
      "min": [
        0.007602999918162823,
        1.007601022720337
      ],
      "type": "VEC2"
    },
    {
      "bufferView": 0,
      "componentType": 5125,
      "count": 298926,
      "type": "SCALAR"
    }
  ],
  "asset": {
    "extras": {
      "author": "fotamosta (https://sketchfab.com/3d_model_2023)",
      "license": "CC-BY-4.0 (http://creativecommons.org/licenses/by/4.0/)",
      "source": "https://sketchfab.com/3d-models/young-golfer-girl-c126f7019e5040be9da6acea1c669927",
      "title": "Young Golfer Girl"
    },
    "generator": "Sketchfab-15.55.0",
    "version": "2.0"
  },
  "bufferViews": [
    {
      "buffer": 0,
      "byteLength": 1195704,
      "name": "floatBufferViews",
      "target": 34963
    },
    {
      "buffer": 0,
      "byteLength": 413976,
      "byteOffset": 1195704,
      "byteStride": 8,
      "name": "floatBufferViews",
      "target": 34962
    },
    {
      "buffer": 0,
      "byteLength": 1241928,
      "byteOffset": 1609680,
      "byteStride": 12,
      "name": "floatBufferViews",
      "target": 34962
    }
  ],
  "buffers": [
    {
      "byteLength": 2851608,
      "uri": "scene.bin"
    }
  ],
  "images": [
    {
      "uri": "textures/100k_mtl_SG_baseColor.jpeg"
    }
  ],
  "materials": [
    {
      "doubleSided": true,
      "name": "100k_mtl_SG",
      "pbrMetallicRoughness": {
        "baseColorTexture": {
          "index": 0
        },
        "metallicFactor": 0.0,
        "roughnessFactor": 0.9577051494623774
      }
    }
  ],
  "meshes": [
    {
      "name": "desirefx.me_002__100k_mtl_SG_0",
      "primitives": [
        {
          "attributes": {
            "NORMAL": 1,
            "POSITION": 0,
            "TEXCOORD_0": 2
          },
          "indices": 3,
          "material": 0,
          "mode": 4
        }
      ]
    }
  ],
  "nodes": [
    {
      "children": [
        1
      ],
      "matrix": [
        1.0,
        0.0,
        0.0,
        0.0,
        0.0,
        2.220446049250313e-16,
        -1.0,
        0.0,
        0.0,
        1.0,
        2.220446049250313e-16,
        0.0,
        0.0,
        0.0,
        0.0,
        1.0
      ],
      "name": "Sketchfab_model"
    },
    {
      "children": [
        2
      ],
      "matrix": [
        0.009999999776482582,
        0.0,
        0.0,
        0.0,
        0.0,
        0.0,
        0.009999999776482582,
        0.0,
        0.0,
        -0.009999999776482582,
        0.0,
        0.0,
        0.0,
        0.0,
        0.0,
        1.0
      ],
      "name": "Young Golfer Girl Playing Golf.fbx"
    },
    {
      "children": [
        3
      ],
      "name": "RootNode"
    },
    {
      "children": [
        4
      ],
      "matrix": [
        1.0,
        0.0,
        0.0,
        0.0,
        0.0,
        2.220446049250313e-16,
        -1.0,
        0.0,
        0.0,
        1.0,
        2.220446049250313e-16,
        0.0,
        0.09800434112548828,
        24.357555389404297,
        13.368293762207031,
        1.0
      ],
      "name": "desirefx.me_001"
    },
    {
      "children": [
        5
      ],
      "matrix": [
        10.0,
        0.0,
        0.0,
        0.0,
        0.0,
        -1.6292068472090193e-06,
        9.999999999999869,
        0.0,
        0.0,
        -9.999999999999869,
        -1.6292068472090193e-06,
        0.0,
        -0.09800434112548828,
        13.368293762207031,
        -24.357555389404297,
        1.0
      ],
      "name": "desirefx.me_002"
    },
    {
      "mesh": 0,
      "name": "desirefx.me_002__100k_mtl_SG_0"
    }
  ],
  "samplers": [
    {
      "magFilter": 9729,
      "minFilter": 9987,
      "wrapS": 10497,
      "wrapT": 10497
    }
  ],
  "scene": 0,
  "scenes": [
    {
      "name": "Sketchfab_Scene",
      "nodes": [
        0
      ]
    }
  ],
  "textures": [
    {
      "sampler": 0,
      "source": 0
    }
  ]
}
